HIERARCHY
ROOT root
{
	OFFSET 0.000000 0.000000 0.000000
	CHANNELS 6 Xposition Yposition Zposition Zrotation Yrotation Xrotation
	JOINT lhip
	{
		OFFSET 0.058581 -0.082280 -0.017664
		CHANNELS 3 Zrotation Yrotation Xrotation
		JOINT lknee
		{
			OFFSET 0.043451 -0.386469 0.008037
			CHANNELS 3 Zrotation Yrotation Xrotation
			JOINT lankle
			{
				OFFSET -0.014790 -0.426874 -0.037428
				CHANNELS 3 Zrotation Yrotation Xrotation
				JOINT ltoe
				{
					OFFSET 0.041054 -0.060286 0.122042
					CHANNELS 3 Zrotation Yrotation Xrotation
					End Site
					{
						OFFSET 0.000000 0.000000 0.000000
					}
				}
			}
		}
	}
	JOINT rhip
	{
		OFFSET -0.060310 -0.090513 -0.013543
		CHANNELS 3 Zrotation Yrotation Xrotation
		JOINT rknee
		{
			OFFSET -0.043257 -0.383688 -0.004843
			CHANNELS 3 Zrotation Yrotation Xrotation
			JOINT rankle
			{
				OFFSET 0.019056 -0.420046 -0.034562
				CHANNELS 3 Zrotation Yrotation Xrotation
				JOINT rtoe
				{
					OFFSET -0.034840 -0.062106 0.130323
					CHANNELS 3 Zrotation Yrotation Xrotation
					End Site
					{
						OFFSET 0.000000 0.000000 0.000000
					}
				}
			}
		}
	}
	JOINT lowerback
	{
		OFFSET 0.004439 0.124404 -0.038385
		CHANNELS 3 Zrotation Yrotation Xrotation
		JOINT upperback
		{
			OFFSET 0.004488 0.137956 0.026820
			CHANNELS 3 Zrotation Yrotation Xrotation
			JOINT chest
			{
				OFFSET -0.002265 0.056032 0.002855
				CHANNELS 3 Zrotation Yrotation Xrotation
				JOINT lowerneck
				{
					OFFSET -0.013390 0.211636 -0.033468
					CHANNELS 3 Zrotation Yrotation Xrotation
					JOINT upperneck
					{
						OFFSET 0.010113 0.088937 0.050410
						CHANNELS 3 Zrotation Yrotation Xrotation
						End Site
						{
							OFFSET 0.000000 0.000000 0.000000
						}
					}
				}
				JOINT lclavicle
				{
					OFFSET 0.071702 0.114000 -0.018898
					CHANNELS 3 Zrotation Yrotation Xrotation
					JOINT lshoulder
					{
						OFFSET 0.122921 0.045205 -0.019046
						CHANNELS 3 Zrotation Yrotation Xrotation
						JOINT lelbow
						{
							OFFSET 0.255332 -0.015649 -0.022946
							CHANNELS 3 Zrotation Yrotation Xrotation
							JOINT lwrist
							{
								OFFSET 0.265709 0.012698 -0.007375
								CHANNELS 3 Zrotation Yrotation Xrotation
								End Site
								{
									OFFSET 0.000000 0.000000 0.000000
								}
							}
						}
					}
				}
				JOINT rclavicle
				{
					OFFSET -0.082954 0.112472 -0.023707
					CHANNELS 3 Zrotation Yrotation Xrotation
					JOINT rshoulder
					{
						OFFSET -0.113228 0.046853 -0.008472
						CHANNELS 3 Zrotation Yrotation Xrotation
						JOINT relbow
						{
							OFFSET -0.260127 -0.014369 -0.031269
							CHANNELS 3 Zrotation Yrotation Xrotation
							JOINT rwrist
							{
								OFFSET -0.269108 0.006794 -0.006027
								CHANNELS 3 Zrotation Yrotation Xrotation
								End Site
								{
									OFFSET 0.000000 0.000000 0.000000
								}
							}
						}
					}
				}
			}
		}
	}
}
MOTION
Frames: 17
Frame Time: 0.033333
1.651048 0.295740 0.943168 -83.132805 -0.662865 99.630508 -1.106131 1.499050 2.476853 -3.477888 -14.679053 6.784818 4.972807 9.891634 -25.623829 0.000000 -0.000000 0.000000 -5.320849 2.327414 -34.886960 3.088937 -9.141292 43.405812 1.106623 -8.293107 -23.577438 0.000000 -0.000000 0.000000 0.801431 -6.959963 23.047724 3.130837 -0.010102 -3.966775 1.643233 -2.449215 0.954915 -0.571909 8.303376 -17.545809 -5.902032 -4.226984 5.417090 -26.452710 -2.591406 2.440103 -51.931827 -6.225900 12.864290 2.880319 -36.654754 12.957879 -1.856098 -7.636855 -3.354577 30.520544 7.259795 1.139614 49.049560 7.418328 13.856222 -14.014770 29.714818 -9.189157 2.228956 5.242450 -5.434579 
1.628548 0.298713 0.937164 -83.677025 -0.608992 101.351606 -0.795430 1.854337 2.699997 -3.326311 -14.629891 5.858714 4.952846 10.189573 -26.454654 0.000000 -0.000000 0.000000 -5.303929 2.663979 -36.586975 3.313463 -9.576394 45.894182 1.153595 -8.071743 -25.025519 0.000000 -0.000000 0.000000 0.996500 -7.421745 23.601885 3.249673 0.067153 -3.911326 1.693137 -2.524108 0.884712 -0.695187 8.879457 -18.369717 -5.860712 -3.985983 4.393873 -26.572088 -3.207059 2.488459 -52.067647 -6.077856 13.077659 2.504202 -37.433799 13.016268 -1.430618 -7.702470 -3.390421 30.435474 7.425118 1.271535 49.156429 7.188992 13.949474 -14.645144 31.891719 -9.150462 2.397543 5.319377 -5.700180 
1.603695 0.302077 0.930261 -84.388948 -0.433703 103.137326 -0.396396 2.262798 2.982341 -3.205642 -14.503830 5.093341 4.826058 10.453211 -27.314270 0.000000 -0.000000 0.000000 -5.221598 3.148367 -38.420914 3.538150 -10.081530 48.758469 1.307426 -7.788307 -26.321859 0.000000 -0.000000 0.000000 1.151330 -7.995361 24.198572 3.370209 0.186005 -3.910210 1.770011 -2.600483 0.851597 -0.853220 9.598895 -19.352612 -5.822769 -3.589283 3.380422 -26.618504 -3.763810 2.504158 -52.316059 -5.962966 13.303762 2.205394 -38.904607 13.111734 -0.729223 -7.909800 -3.670678 30.317346 7.460979 1.459890 49.342742 6.798829 14.103522 -15.260558 34.499781 -9.101703 2.109356 5.687516 -6.080012 
1.575930 0.305942 0.922712 -85.072973 -0.121548 104.904578 0.104580 2.603235 3.224533 -3.129638 -14.409731 4.948504 4.509030 10.704511 -28.148437 0.000000 -0.000000 0.000000 -5.002105 3.672454 -40.090148 3.730892 -10.506190 51.809896 1.596669 -7.385025 -27.423533 0.000000 -0.000000 0.000000 1.342835 -8.686636 24.836213 3.562566 0.227689 -3.950046 1.852396 -2.665522 0.846945 -1.128775 10.374472 -20.411109 -5.759401 -3.004136 2.362096 -26.629020 -4.160353 2.494982 -52.628460 -5.868336 13.548918 2.160084 -41.508490 13.079818 0.536886 -8.244220 -4.484460 30.169519 7.224825 1.644394 49.601358 6.093583 14.279286 -16.007793 37.528699 -9.098271 1.316581 6.333691 -6.590362 
1.543961 0.311671 0.915595 -85.802270 0.570311 106.295405 0.954209 2.731201 3.603939 -2.874455 -12.727291 5.980327 2.009117 9.154946 -29.889235 0.000000 -0.000000 0.000000 -4.248920 4.880030 -41.024818 2.848508 -11.134592 55.023924 2.429081 -6.284267 -28.617794 0.000000 -0.000000 0.000000 1.636497 -8.777212 25.274267 4.450653 -0.256000 -1.713890 1.912203 -2.338699 -1.432921 -1.654257 10.741657 -18.899964 -5.668391 -2.218663 -1.590805 -27.860190 -4.987449 2.871180 -51.681496 -5.229046 14.639716 3.411361 -45.455708 10.330397 2.391921 -10.369740 -6.983910 30.862764 7.083919 2.289864 49.047753 4.016290 15.037791 -18.891800 40.733665 -11.034729 0.401397 8.404587 -7.088989 
1.508445 0.316789 0.909052 -86.388330 0.962010 107.756342 1.210220 2.076565 3.433099 -2.737064 -12.509189 8.352346 0.742298 9.365359 -29.997056 0.000000 -0.000000 0.000000 -3.807178 5.723145 -41.636099 2.852608 -11.394900 57.778230 2.887093 -6.022541 -28.957725 0.000000 -0.000000 0.000000 1.805535 -9.214884 25.910129 4.794006 -0.297250 -1.446788 1.997683 -2.233049 -1.621408 -2.277203 11.098516 -19.804119 -5.522656 -1.582704 -2.913217 -28.260456 -5.011221 2.554542 -51.547420 -5.454376 15.109089 5.143308 -50.862634 8.099825 4.094450 -10.662198 -9.213254 31.270303 6.223882 2.286572 48.685450 2.219492 15.180764 -20.879210 44.248742 -12.359159 -0.248316 9.156878 -7.261487 
1.468413 0.322542 0.904620 -87.092293 1.241927 109.039641 1.145957 0.477244 2.107366 -3.016739 -12.106444 13.843253 -1.302223 9.389226 -28.900631 0.000000 -0.000000 0.000000 -3.012895 6.702871 -41.241268 2.533393 -11.452620 59.653252 3.138425 -6.086094 -28.966961 0.000000 -0.000000 0.000000 1.837961 -9.143928 26.407021 5.071674 -0.378878 -1.126429 2.051367 -2.039031 -1.659357 -2.962208 11.171928 -20.874989 -5.254421 -1.198997 -4.154120 -28.584653 -4.862461 2.074122 -51.647996 -5.900719 15.624687 9.343584 -57.791218 4.311242 6.152113 -10.879644 -11.765346 31.760782 5.387107 2.426226 48.482330 0.280838 15.188831 -23.515188 47.205737 -13.984149 -1.199946 9.966555 -7.581430 
1.424245 0.328979 0.902076 -87.884463 1.199887 110.014227 0.963291 -1.980620 -1.468945 -4.689994 -10.637227 24.163109 -3.796697 8.933623 -24.721808 0.000000 -0.000000 0.000000 -1.862043 7.472088 -39.545394 1.915178 -10.727029 60.386335 2.742551 -6.272742 -28.925162 0.000000 -0.000000 0.000000 1.606827 -8.269117 26.963703 5.274054 -0.587777 -0.834241 2.072809 -1.742728 -1.637203 -3.734060 10.843155 -22.021357 -4.736221 -1.166220 -5.351792 -28.694640 -4.797123 1.545333 -52.118373 -6.457808 16.205271 18.185007 -65.924241 -3.460012 8.708694 -10.589918 -15.262054 31.969029 4.915005 2.912242 49.043970 -1.462343 14.898662 -26.762065 49.098699 -16.461482 -2.846091 10.378947 -9.133213 
1.376990 0.335301 0.899709 -88.543650 0.614131 110.619061 1.069677 -4.617234 -8.075818 -7.634249 -7.096982 38.907864 -4.284085 8.176653 -15.867615 0.000000 -0.000000 0.000000 -0.893855 7.684188 -36.777586 1.409645 -9.321075 60.352116 1.415610 -6.327697 -28.922422 0.000000 -0.000000 0.000000 1.123477 -6.610888 27.589107 5.361937 -0.860032 -0.663482 2.019404 -1.355772 -1.606360 -4.492210 9.641725 -22.982963 -3.825662 -1.420939 -6.474607 -28.421191 -4.904901 0.997633 -52.849922 -7.337605 17.095127 35.526056 -74.021642 -19.666827 12.121277 -9.704028 -20.123858 31.683275 4.925071 3.616543 50.493280 -2.595645 14.545653 -30.220300 50.193412 -19.752191 -5.188833 10.318493 -11.744798 
1.327019 0.341033 0.895548 -89.023388 -0.298930 110.709243 1.697108 -6.110397 -16.584440 -9.066201 -1.334035 54.221710 -2.472506 8.136244 -12.759046 0.000000 -0.000000 0.000000 -0.124128 7.274062 -32.880262 1.101158 -7.624804 59.794245 0.618345 -6.059658 -29.302809 0.000000 -0.000000 0.000000 0.634511 -4.314034 28.316569 5.270522 -1.020398 -0.837690 1.914956 -0.855718 -1.354371 -4.832238 7.479842 -23.507593 -2.902483 -1.805678 -7.228970 -27.931991 -5.162779 0.488737 -53.698380 -8.470706 17.806981 71.557860 -79.827945 -53.657789 15.405060 -9.265249 -24.238974 31.113712 5.470012 3.913725 51.795040 -3.005943 14.615536 -33.562159 52.140304 -22.322413 -7.123232 10.680570 -13.338152 
1.273444 0.346382 0.890260 -89.807033 -1.379278 110.626833 3.100698 -6.287847 -26.355168 -7.360698 5.875611 67.365756 -0.764373 8.208057 -16.146155 0.000000 -0.000000 0.000000 0.468215 6.438039 -27.874314 0.681915 -5.518967 57.938551 0.802547 -5.322336 -29.935481 0.000000 -0.000000 0.000000 -0.034278 -1.206801 28.706128 5.083089 -1.011157 -1.107544 1.889500 -0.302357 -0.997603 -4.759258 5.465679 -23.870156 -2.461430 -2.944881 -7.115253 -27.199207 -5.117120 0.257226 -55.103652 -9.127631 17.800245 115.841019 -80.402619 -94.895680 17.183022 -10.673465 -25.607470 30.287054 6.609545 3.694961 52.555384 -2.111967 15.327797 -38.394224 56.065917 -26.045057 -8.663271 11.263890 -16.282759 
1.213910 0.351086 0.886660 -91.369990 -2.581927 110.807224 5.013716 -5.244248 -37.092171 -5.159796 12.480584 76.421832 0.217955 6.949935 -19.177053 0.000000 -0.000000 0.000000 0.578847 5.250192 -21.699373 0.317316 -2.443832 53.620959 1.185277 -4.121690 -30.154621 0.000000 -0.000000 0.000000 -1.119713 2.700217 28.226372 4.860479 -1.153014 -1.297250 2.007334 0.341376 -0.759296 -4.721677 3.847471 -23.473424 -2.177586 -4.397275 -6.917881 -25.424825 -4.331027 0.719647 -57.251310 -7.324445 17.139560 135.223265 -80.493929 -111.855761 18.614301 -11.804584 -26.224015 28.107562 8.021952 3.021965 53.932084 0.635155 16.444996 -49.632582 62.768099 -34.641613 -10.344444 11.809910 -19.608721 
1.145991 0.354544 0.886973 -93.520680 -3.783205 111.247330 6.555717 -3.193873 -47.529076 -4.773910 17.785115 79.438065 0.364111 4.268755 -21.490199 0.000000 -0.000000 0.000000 -0.230137 3.228897 -14.451283 -0.007757 1.373137 46.608694 2.021872 -2.136792 -28.325815 0.000000 -0.000000 0.000000 -2.231507 6.910306 27.241846 4.409801 -1.654020 -1.856820 2.000286 0.954635 -0.530315 -4.592393 2.632575 -22.249675 -1.964096 -5.490760 -6.657275 -22.470229 -2.898267 2.033399 -58.675572 -2.066920 15.684571 133.827883 -84.394709 -109.955585 20.417767 -11.701405 -27.546394 23.958879 9.040567 1.284150 56.550493 5.576152 17.420757 -75.077789 69.985953 -56.266652 -11.687283 12.730059 -21.512209 
1.068702 0.355944 0.892611 -96.115799 -4.678199 112.077381 8.022029 -1.195553 -56.167704 -5.834369 22.118590 75.676819 -1.333834 -1.036622 -22.353921 0.000000 -0.000000 0.000000 -2.534658 0.867718 -7.108563 -0.322600 5.029396 37.774162 5.122003 1.298978 -21.170715 0.000000 -0.000000 0.000000 -2.751753 10.896880 26.380246 2.898022 -2.550098 -1.990676 2.063723 1.596100 -2.043931 -4.776805 -0.340510 -19.751330 -0.074913 -4.234885 -6.428263 -19.020129 -2.871839 3.763984 -58.857698 7.652077 11.361748 2.466079 -88.551521 19.508341 22.382418 -13.274831 -26.059301 17.074382 12.206783 -1.493857 60.889391 9.457711 15.760786 -113.492544 70.547168 -93.663044 -9.775478 15.358881 -21.400158 
0.983337 0.354879 0.903629 -98.441757 -5.187010 113.242922 8.752989 0.072816 -61.735073 -9.489432 23.421934 65.533126 -2.860658 -4.244042 -20.548961 0.000000 -0.000000 0.000000 -6.166604 -2.327922 -1.901875 -1.020325 7.002048 29.771624 11.871844 5.838816 -4.716024 0.000000 -0.000000 0.000000 -2.520184 13.600239 25.882417 0.898770 -2.898383 -2.964560 1.159997 2.429337 -2.377767 -4.083272 -3.504792 -17.832140 1.577134 -3.214404 -7.936202 -17.162447 -1.726181 5.421894 -55.816074 15.934990 9.209716 -31.384395 -83.741429 50.902505 23.824958 -14.096618 -23.983041 10.180356 13.486139 -4.776992 64.505671 14.443511 15.399619 -132.013494 64.591553 -111.723280 -8.275857 16.777000 -19.111573 
0.891910 0.354013 0.914947 -100.149715 -4.816019 113.822034 9.719799 0.431376 -63.109526 -11.120552 23.507653 55.093237 -4.341681 -4.968604 -16.956978 0.000000 -0.000000 0.000000 -8.801348 -4.345246 1.198909 -1.621781 7.401888 24.554214 19.002971 5.748259 17.705611 0.000000 -0.000000 0.000000 -2.009165 15.344052 25.483661 -0.977198 -2.452830 -2.964869 0.599336 3.321163 -2.832016 -3.721405 -7.485230 -15.418432 4.007148 -1.788796 -11.014859 -15.347997 -0.578467 7.569451 -54.268356 21.827646 7.590157 -39.250470 -82.112281 56.962760 24.140777 -14.295447 -23.583789 4.783093 14.491336 -5.935851 65.447891 17.621226 13.813030 -136.968916 58.648039 -117.167176 -7.322979 17.275654 -16.347191 
0.798257 0.354902 0.919970 -99.940488 -4.353924 113.769400 9.506654 -0.850046 -61.675690 -10.668383 23.162840 49.800504 -3.111928 -2.933412 -14.610750 0.000000 -0.000000 0.000000 -7.755729 -2.900514 1.494384 -2.109991 7.508482 28.602656 15.522815 0.690487 24.617884 0.000000 -0.000000 0.000000 -2.483689 15.751828 24.567362 -1.094302 -1.624232 -2.391767 0.868759 3.376575 -2.513709 -3.494788 -9.142368 -14.647035 4.910437 -1.846034 -12.712019 -13.055875 0.490406 9.423936 -56.645002 23.843198 5.634495 -45.011025 -82.307952 63.846201 23.279449 -13.253957 -24.548547 3.265838 14.765794 -5.518330 63.791767 18.647527 12.498939 -137.726277 56.629054 -117.182645 -6.607358 17.770637 -15.823169 
